<mxfile host="Electron" modified="2023-06-14T19:58:58.912Z" agent="Mozilla/5.0 (Windows NT 10.0; Win64; x64) AppleWebKit/537.36 (KHTML, like Gecko) draw.io/21.2.8 Chrome/112.0.5615.165 Electron/24.2.0 Safari/537.36" etag="oPIH63l7BWoFg5BHXOTk" version="21.2.8" type="device">
  <diagram id="C5RBs43oDa-KdzZeNtuy" name="Page-1">
    <mxGraphModel dx="4977" dy="743" grid="1" gridSize="9" guides="1" tooltips="1" connect="1" arrows="1" fold="1" page="1" pageScale="1" pageWidth="1654" pageHeight="2336" background="none" math="0" shadow="1">
      <root>
        <mxCell id="WIyWlLk6GJQsqaUBKTNV-0" />
        <mxCell id="WIyWlLk6GJQsqaUBKTNV-1" parent="WIyWlLk6GJQsqaUBKTNV-0" />
        <mxCell id="zkfFHV4jXpPFQw0GAbJ--0" value="Guest" style="swimlane;fontStyle=3;align=center;verticalAlign=top;childLayout=stackLayout;horizontal=1;startSize=26;horizontalStack=0;resizeParent=1;resizeLast=0;collapsible=1;marginBottom=0;rounded=1;shadow=0;strokeWidth=1;labelBackgroundColor=none;fillColor=#A8DADC;strokeColor=#457B9D;fontColor=#1D3557;fontFamily=Comic Sans MS;labelBorderColor=none;html=1;" parent="WIyWlLk6GJQsqaUBKTNV-1" vertex="1">
          <mxGeometry x="-2922" y="576" width="160" height="104" as="geometry">
            <mxRectangle x="230" y="140" width="160" height="26" as="alternateBounds" />
          </mxGeometry>
        </mxCell>
        <mxCell id="zkfFHV4jXpPFQw0GAbJ--1" value=" #  email : string" style="text;align=left;verticalAlign=top;spacingLeft=4;spacingRight=4;overflow=hidden;rotatable=0;points=[[0,0.5],[1,0.5]];portConstraint=eastwest;labelBackgroundColor=none;rounded=1;shadow=0;fontStyle=1;fontColor=#1D3557;fontFamily=Comic Sans MS;labelBorderColor=none;html=1;" parent="zkfFHV4jXpPFQw0GAbJ--0" vertex="1">
          <mxGeometry y="26" width="160" height="26" as="geometry" />
        </mxCell>
        <mxCell id="zkfFHV4jXpPFQw0GAbJ--4" value="" style="line;strokeWidth=1;align=left;verticalAlign=middle;spacingTop=-1;spacingLeft=3;spacingRight=3;rotatable=0;labelPosition=right;points=[];portConstraint=eastwest;labelBackgroundColor=none;rounded=1;shadow=0;fontStyle=1;fillColor=#A8DADC;strokeColor=#000000;fontColor=#1D3557;fontFamily=Comic Sans MS;labelBorderColor=none;html=1;" parent="zkfFHV4jXpPFQw0GAbJ--0" vertex="1">
          <mxGeometry y="52" width="160" height="8" as="geometry" />
        </mxCell>
        <mxCell id="OnautR0iY9yRCEXQRBwu-68" value="+ Guest()&lt;br&gt;+ ~Guest()" style="text;align=left;verticalAlign=top;spacingLeft=4;spacingRight=4;overflow=hidden;rotatable=0;points=[[0,0.5],[1,0.5]];portConstraint=eastwest;labelBackgroundColor=none;rounded=1;shadow=0;fontStyle=1;fontColor=#1D3557;fontFamily=Comic Sans MS;labelBorderColor=none;html=1;" parent="zkfFHV4jXpPFQw0GAbJ--0" vertex="1">
          <mxGeometry y="60" width="160" height="39" as="geometry" />
        </mxCell>
        <mxCell id="zkfFHV4jXpPFQw0GAbJ--6" value="RegisterdUser" style="swimlane;fontStyle=1;align=center;verticalAlign=top;childLayout=stackLayout;horizontal=1;startSize=26;horizontalStack=0;resizeParent=1;resizeLast=0;collapsible=1;marginBottom=0;rounded=1;shadow=0;strokeWidth=1;labelBackgroundColor=none;fillColor=#A8DADC;strokeColor=#457B9D;fontColor=#1D3557;fontFamily=Comic Sans MS;labelBorderColor=none;html=1;" parent="WIyWlLk6GJQsqaUBKTNV-1" vertex="1">
          <mxGeometry x="-2941" y="774" width="198" height="225" as="geometry">
            <mxRectangle x="130" y="380" width="160" height="26" as="alternateBounds" />
          </mxGeometry>
        </mxCell>
        <mxCell id="zkfFHV4jXpPFQw0GAbJ--7" value="# name : string&lt;br&gt;# address : string&lt;br&gt;# contactNo : int&lt;br&gt;# userName : string&lt;br&gt;# password : string&lt;br&gt;" style="text;align=left;verticalAlign=top;spacingLeft=4;spacingRight=4;overflow=hidden;rotatable=0;points=[[0,0.5],[1,0.5]];portConstraint=eastwest;labelBackgroundColor=none;rounded=1;shadow=0;fontStyle=1;fontColor=#1D3557;fontFamily=Comic Sans MS;labelBorderColor=none;html=1;" parent="zkfFHV4jXpPFQw0GAbJ--6" vertex="1">
          <mxGeometry y="26" width="198" height="84" as="geometry" />
        </mxCell>
        <mxCell id="zkfFHV4jXpPFQw0GAbJ--9" value="" style="line;strokeWidth=1;align=left;verticalAlign=middle;spacingTop=-1;spacingLeft=3;spacingRight=3;rotatable=0;labelPosition=right;points=[];portConstraint=eastwest;labelBackgroundColor=none;rounded=1;shadow=0;fontStyle=1;fillColor=#A8DADC;strokeColor=#000000;fontColor=#1D3557;fontFamily=Comic Sans MS;labelBorderColor=none;html=1;" parent="zkfFHV4jXpPFQw0GAbJ--6" vertex="1">
          <mxGeometry y="110" width="198" height="8" as="geometry" />
        </mxCell>
        <mxCell id="OnautR0iY9yRCEXQRBwu-3" value="+ RegisteredUser()&lt;br&gt;+ setUserDetails() : void&lt;br&gt;+ addUserAccount() : void&lt;br&gt;+ removeUserAccount() : void&lt;br&gt;+ updateUserAcconut() : void&lt;br&gt;+ ~RegisteredUser()" style="text;align=left;verticalAlign=top;spacingLeft=4;spacingRight=4;overflow=hidden;rotatable=0;points=[[0,0.5],[1,0.5]];portConstraint=eastwest;labelBackgroundColor=none;rounded=1;shadow=0;fontStyle=1;fontColor=#1D3557;fontFamily=Comic Sans MS;labelBorderColor=none;html=1;" parent="zkfFHV4jXpPFQw0GAbJ--6" vertex="1">
          <mxGeometry y="118" width="198" height="107" as="geometry" />
        </mxCell>
        <mxCell id="OnautR0iY9yRCEXQRBwu-20" value="Doctor" style="swimlane;fontStyle=1;align=center;verticalAlign=top;childLayout=stackLayout;horizontal=1;startSize=26;horizontalStack=0;resizeParent=1;resizeParentMax=0;resizeLast=0;collapsible=1;marginBottom=0;labelBackgroundColor=none;rounded=1;shadow=0;fillColor=#A8DADC;strokeColor=#457B9D;fontColor=#1D3557;fontFamily=Comic Sans MS;labelBorderColor=none;html=1;" parent="WIyWlLk6GJQsqaUBKTNV-1" vertex="1">
          <mxGeometry x="-2241" y="918" width="207" height="99" as="geometry" />
        </mxCell>
        <mxCell id="OnautR0iY9yRCEXQRBwu-21" value="- doctorID : string" style="text;align=left;verticalAlign=top;spacingLeft=4;spacingRight=4;overflow=hidden;rotatable=0;points=[[0,0.5],[1,0.5]];portConstraint=eastwest;labelBackgroundColor=none;rounded=1;shadow=0;fontStyle=1;fontColor=#1D3557;fontFamily=Comic Sans MS;labelBorderColor=none;html=1;" parent="OnautR0iY9yRCEXQRBwu-20" vertex="1">
          <mxGeometry y="26" width="207" height="26" as="geometry" />
        </mxCell>
        <mxCell id="OnautR0iY9yRCEXQRBwu-22" value="" style="line;strokeWidth=1;align=left;verticalAlign=middle;spacingTop=-1;spacingLeft=3;spacingRight=3;rotatable=0;labelPosition=right;points=[];portConstraint=eastwest;labelBackgroundColor=none;rounded=1;shadow=0;fontStyle=1;fillColor=#A8DADC;strokeColor=#000000;fontColor=#1D3557;fontFamily=Comic Sans MS;labelBorderColor=none;html=1;" parent="OnautR0iY9yRCEXQRBwu-20" vertex="1">
          <mxGeometry y="52" width="207" height="8" as="geometry" />
        </mxCell>
        <mxCell id="OnautR0iY9yRCEXQRBwu-23" value="+ displayDoctorDetails() : void" style="text;align=left;verticalAlign=top;spacingLeft=4;spacingRight=4;overflow=hidden;rotatable=0;points=[[0,0.5],[1,0.5]];portConstraint=eastwest;labelBackgroundColor=none;rounded=1;shadow=0;fontStyle=1;fontColor=#1D3557;fontFamily=Comic Sans MS;labelBorderColor=none;html=1;" parent="OnautR0iY9yRCEXQRBwu-20" vertex="1">
          <mxGeometry y="60" width="207" height="39" as="geometry" />
        </mxCell>
        <mxCell id="OnautR0iY9yRCEXQRBwu-36" value="Feedback" style="swimlane;fontStyle=1;align=center;verticalAlign=top;childLayout=stackLayout;horizontal=1;startSize=26;horizontalStack=0;resizeParent=1;resizeParentMax=0;resizeLast=0;collapsible=1;marginBottom=0;labelBackgroundColor=none;rounded=1;shadow=0;fillColor=#A8DADC;strokeColor=#457B9D;fontColor=#1D3557;fontFamily=Comic Sans MS;labelBorderColor=none;html=1;" parent="WIyWlLk6GJQsqaUBKTNV-1" vertex="1">
          <mxGeometry x="-2952" y="1755" width="180" height="135" as="geometry" />
        </mxCell>
        <mxCell id="OnautR0iY9yRCEXQRBwu-37" value="- feedback : string" style="text;align=left;verticalAlign=top;spacingLeft=4;spacingRight=4;overflow=hidden;rotatable=0;points=[[0,0.5],[1,0.5]];portConstraint=eastwest;labelBackgroundColor=none;rounded=1;shadow=0;fontStyle=1;fontColor=#1D3557;fontFamily=Comic Sans MS;labelBorderColor=none;html=1;" parent="OnautR0iY9yRCEXQRBwu-36" vertex="1">
          <mxGeometry y="26" width="180" height="26" as="geometry" />
        </mxCell>
        <mxCell id="OnautR0iY9yRCEXQRBwu-38" value="" style="line;strokeWidth=1;align=left;verticalAlign=middle;spacingTop=-1;spacingLeft=3;spacingRight=3;rotatable=0;labelPosition=right;points=[];portConstraint=eastwest;labelBackgroundColor=none;rounded=1;shadow=0;fontStyle=1;fillColor=#A8DADC;strokeColor=#000000;fontColor=#1D3557;fontFamily=Comic Sans MS;labelBorderColor=none;html=1;" parent="OnautR0iY9yRCEXQRBwu-36" vertex="1">
          <mxGeometry y="52" width="180" height="8" as="geometry" />
        </mxCell>
        <mxCell id="OnautR0iY9yRCEXQRBwu-39" value="+ addFeedback() : void&lt;br&gt;+ displayFeedback() : void&lt;br&gt;+ handleFeedback() : void" style="text;align=left;verticalAlign=top;spacingLeft=4;spacingRight=4;overflow=hidden;rotatable=0;points=[[0,0.5],[1,0.5]];portConstraint=eastwest;labelBackgroundColor=none;rounded=1;shadow=0;fontStyle=1;fontColor=#1D3557;fontFamily=Comic Sans MS;labelBorderColor=none;html=1;" parent="OnautR0iY9yRCEXQRBwu-36" vertex="1">
          <mxGeometry y="60" width="180" height="75" as="geometry" />
        </mxCell>
        <mxCell id="OnautR0iY9yRCEXQRBwu-40" value="Order" style="swimlane;fontStyle=1;align=center;verticalAlign=top;childLayout=stackLayout;horizontal=1;startSize=26;horizontalStack=0;resizeParent=1;resizeParentMax=0;resizeLast=0;collapsible=1;marginBottom=0;labelBackgroundColor=none;rounded=1;shadow=0;fillColor=#A8DADC;strokeColor=#457B9D;fontColor=#1D3557;fontFamily=Comic Sans MS;labelBorderColor=none;html=1;" parent="WIyWlLk6GJQsqaUBKTNV-1" vertex="1">
          <mxGeometry x="-2538" y="1548" width="199" height="126" as="geometry" />
        </mxCell>
        <mxCell id="OnautR0iY9yRCEXQRBwu-41" value="- orderID: string" style="text;align=left;verticalAlign=top;spacingLeft=4;spacingRight=4;overflow=hidden;rotatable=0;points=[[0,0.5],[1,0.5]];portConstraint=eastwest;labelBackgroundColor=none;rounded=1;shadow=0;fontStyle=1;fontColor=#1D3557;fontFamily=Comic Sans MS;labelBorderColor=none;html=1;" parent="OnautR0iY9yRCEXQRBwu-40" vertex="1">
          <mxGeometry y="26" width="199" height="26" as="geometry" />
        </mxCell>
        <mxCell id="OnautR0iY9yRCEXQRBwu-42" value="" style="line;strokeWidth=1;align=left;verticalAlign=middle;spacingTop=-1;spacingLeft=3;spacingRight=3;rotatable=0;labelPosition=right;points=[];portConstraint=eastwest;labelBackgroundColor=none;rounded=1;shadow=0;fontStyle=1;fillColor=#A8DADC;strokeColor=#000000;fontColor=#1D3557;fontFamily=Comic Sans MS;labelBorderColor=none;html=1;" parent="OnautR0iY9yRCEXQRBwu-40" vertex="1">
          <mxGeometry y="52" width="199" height="8" as="geometry" />
        </mxCell>
        <mxCell id="OnautR0iY9yRCEXQRBwu-43" value="+ setOrder() : void&lt;br&gt;+ manageOrders() : void&lt;br&gt;+ displayOrderDetails() : void" style="text;align=left;verticalAlign=top;spacingLeft=4;spacingRight=4;overflow=hidden;rotatable=0;points=[[0,0.5],[1,0.5]];portConstraint=eastwest;labelBackgroundColor=none;rounded=1;shadow=0;fontStyle=1;fontColor=#1D3557;fontFamily=Comic Sans MS;labelBorderColor=none;html=1;" parent="OnautR0iY9yRCEXQRBwu-40" vertex="1">
          <mxGeometry y="60" width="199" height="66" as="geometry" />
        </mxCell>
        <mxCell id="OnautR0iY9yRCEXQRBwu-44" value="Booking" style="swimlane;fontStyle=1;align=center;verticalAlign=top;childLayout=stackLayout;horizontal=1;startSize=26;horizontalStack=0;resizeParent=1;resizeParentMax=0;resizeLast=0;collapsible=1;marginBottom=0;labelBackgroundColor=none;rounded=1;shadow=0;fillColor=#A8DADC;strokeColor=#457B9D;fontColor=#1D3557;fontFamily=Comic Sans MS;labelBorderColor=none;html=1;" parent="WIyWlLk6GJQsqaUBKTNV-1" vertex="1">
          <mxGeometry x="-2520" y="1219" width="214" height="108" as="geometry" />
        </mxCell>
        <mxCell id="OnautR0iY9yRCEXQRBwu-45" value="- bookingID : string" style="text;align=left;verticalAlign=top;spacingLeft=4;spacingRight=4;overflow=hidden;rotatable=0;points=[[0,0.5],[1,0.5]];portConstraint=eastwest;labelBackgroundColor=none;rounded=1;shadow=0;fontStyle=1;fontColor=#1D3557;fontFamily=Comic Sans MS;labelBorderColor=none;html=1;" parent="OnautR0iY9yRCEXQRBwu-44" vertex="1">
          <mxGeometry y="26" width="214" height="26" as="geometry" />
        </mxCell>
        <mxCell id="OnautR0iY9yRCEXQRBwu-46" value="" style="line;strokeWidth=1;align=left;verticalAlign=middle;spacingTop=-1;spacingLeft=3;spacingRight=3;rotatable=0;labelPosition=right;points=[];portConstraint=eastwest;labelBackgroundColor=none;rounded=1;shadow=0;fontStyle=1;fillColor=#A8DADC;strokeColor=#000000;fontColor=#1D3557;fontFamily=Comic Sans MS;labelBorderColor=none;html=1;" parent="OnautR0iY9yRCEXQRBwu-44" vertex="1">
          <mxGeometry y="52" width="214" height="8" as="geometry" />
        </mxCell>
        <mxCell id="OnautR0iY9yRCEXQRBwu-47" value="+ approveBooking() : void&lt;br&gt;+ displayBookingDetails() : void&lt;br&gt;" style="text;align=left;verticalAlign=top;spacingLeft=4;spacingRight=4;overflow=hidden;rotatable=0;points=[[0,0.5],[1,0.5]];portConstraint=eastwest;labelBackgroundColor=none;rounded=1;shadow=0;fontStyle=1;fontColor=#1D3557;fontFamily=Comic Sans MS;labelBorderColor=none;html=1;" parent="OnautR0iY9yRCEXQRBwu-44" vertex="1">
          <mxGeometry y="60" width="214" height="48" as="geometry" />
        </mxCell>
        <mxCell id="OnautR0iY9yRCEXQRBwu-48" value="Supplier" style="swimlane;fontStyle=1;align=center;verticalAlign=top;childLayout=stackLayout;horizontal=1;startSize=26;horizontalStack=0;resizeParent=1;resizeParentMax=0;resizeLast=0;collapsible=1;marginBottom=0;labelBackgroundColor=none;rounded=1;shadow=0;fillColor=#A8DADC;strokeColor=#457B9D;fontColor=#1D3557;fontFamily=Comic Sans MS;labelBorderColor=none;html=1;" parent="WIyWlLk6GJQsqaUBKTNV-1" vertex="1">
          <mxGeometry x="-2781" y="1089" width="198" height="130" as="geometry" />
        </mxCell>
        <mxCell id="OnautR0iY9yRCEXQRBwu-49" value="- supplierID : string" style="text;align=left;verticalAlign=top;spacingLeft=4;spacingRight=4;overflow=hidden;rotatable=0;points=[[0,0.5],[1,0.5]];portConstraint=eastwest;labelBackgroundColor=none;rounded=1;shadow=0;fontStyle=1;fontColor=#1D3557;fontFamily=Comic Sans MS;labelBorderColor=none;html=1;" parent="OnautR0iY9yRCEXQRBwu-48" vertex="1">
          <mxGeometry y="26" width="198" height="26" as="geometry" />
        </mxCell>
        <mxCell id="OnautR0iY9yRCEXQRBwu-50" value="" style="line;strokeWidth=1;align=left;verticalAlign=middle;spacingTop=-1;spacingLeft=3;spacingRight=3;rotatable=0;labelPosition=right;points=[];portConstraint=eastwest;labelBackgroundColor=none;rounded=1;shadow=0;fontStyle=1;fillColor=#A8DADC;strokeColor=#000000;fontColor=#1D3557;fontFamily=Comic Sans MS;labelBorderColor=none;html=1;" parent="OnautR0iY9yRCEXQRBwu-48" vertex="1">
          <mxGeometry y="52" width="198" height="8" as="geometry" />
        </mxCell>
        <mxCell id="OnautR0iY9yRCEXQRBwu-51" value="+ supplier()&lt;br&gt;+ displaySuplierDetails() : void&lt;br&gt;+~supplier()" style="text;align=left;verticalAlign=top;spacingLeft=4;spacingRight=4;overflow=hidden;rotatable=0;points=[[0,0.5],[1,0.5]];portConstraint=eastwest;labelBackgroundColor=none;rounded=1;shadow=0;fontStyle=1;fontColor=#1D3557;fontFamily=Comic Sans MS;labelBorderColor=none;html=1;" parent="OnautR0iY9yRCEXQRBwu-48" vertex="1">
          <mxGeometry y="60" width="198" height="70" as="geometry" />
        </mxCell>
        <mxCell id="OnautR0iY9yRCEXQRBwu-52" value="Vaccine" style="swimlane;fontStyle=1;align=center;verticalAlign=top;childLayout=stackLayout;horizontal=1;startSize=26;horizontalStack=0;resizeParent=1;resizeParentMax=0;resizeLast=0;collapsible=1;marginBottom=0;labelBackgroundColor=none;rounded=1;shadow=0;fillColor=#A8DADC;strokeColor=#457B9D;fontColor=#1D3557;fontFamily=Comic Sans MS;labelBorderColor=none;html=1;" parent="WIyWlLk6GJQsqaUBKTNV-1" vertex="1">
          <mxGeometry x="-3081" y="1404" width="211" height="216" as="geometry" />
        </mxCell>
        <mxCell id="OnautR0iY9yRCEXQRBwu-53" value="- vaccineID : string&lt;br&gt;- vaccineName : sting&lt;br&gt;- manufacture : string&lt;br&gt;- prise : float" style="text;align=left;verticalAlign=top;spacingLeft=4;spacingRight=4;overflow=hidden;rotatable=0;points=[[0,0.5],[1,0.5]];portConstraint=eastwest;labelBackgroundColor=none;rounded=1;shadow=0;fontStyle=1;fontColor=#1D3557;fontFamily=Comic Sans MS;labelBorderColor=none;html=1;" parent="OnautR0iY9yRCEXQRBwu-52" vertex="1">
          <mxGeometry y="26" width="211" height="73" as="geometry" />
        </mxCell>
        <mxCell id="OnautR0iY9yRCEXQRBwu-54" value="" style="line;strokeWidth=1;align=left;verticalAlign=middle;spacingTop=-1;spacingLeft=3;spacingRight=3;rotatable=0;labelPosition=right;points=[];portConstraint=eastwest;labelBackgroundColor=none;rounded=1;shadow=0;fontStyle=1;fillColor=#A8DADC;strokeColor=#000000;fontColor=#1D3557;fontFamily=Comic Sans MS;labelBorderColor=none;html=1;" parent="OnautR0iY9yRCEXQRBwu-52" vertex="1">
          <mxGeometry y="99" width="211" height="8" as="geometry" />
        </mxCell>
        <mxCell id="OnautR0iY9yRCEXQRBwu-55" value="+ Vaccine()&lt;br&gt;+ displayVaccineDetails() : void&lt;br&gt;+ addVaccine() : void&lt;br&gt;+ removeVaccine() : void&lt;br&gt;+ updateVaccine : void&lt;br&gt;+ ~Vaccine()" style="text;align=left;verticalAlign=top;spacingLeft=4;spacingRight=4;overflow=hidden;rotatable=0;points=[[0,0.5],[1,0.5]];portConstraint=eastwest;labelBackgroundColor=none;rounded=1;shadow=0;fontStyle=1;fontColor=#1D3557;fontFamily=Comic Sans MS;labelBorderColor=none;html=1;" parent="OnautR0iY9yRCEXQRBwu-52" vertex="1">
          <mxGeometry y="107" width="211" height="109" as="geometry" />
        </mxCell>
        <mxCell id="OnautR0iY9yRCEXQRBwu-60" value="Payment" style="swimlane;fontStyle=1;align=center;verticalAlign=top;childLayout=stackLayout;horizontal=1;startSize=26;horizontalStack=0;resizeParent=1;resizeParentMax=0;resizeLast=0;collapsible=1;marginBottom=0;labelBackgroundColor=none;rounded=1;shadow=0;fillColor=#A8DADC;strokeColor=#457B9D;fontColor=#1D3557;fontFamily=Comic Sans MS;labelBorderColor=none;html=1;" parent="WIyWlLk6GJQsqaUBKTNV-1" vertex="1">
          <mxGeometry x="-2106" y="1342.5" width="207" height="171" as="geometry" />
        </mxCell>
        <mxCell id="OnautR0iY9yRCEXQRBwu-61" value="- paymentID: string&lt;br&gt;- total : float" style="text;align=left;verticalAlign=top;spacingLeft=4;spacingRight=4;overflow=hidden;rotatable=0;points=[[0,0.5],[1,0.5]];portConstraint=eastwest;labelBackgroundColor=none;rounded=1;shadow=0;fontStyle=1;fontColor=#1D3557;fontFamily=Comic Sans MS;labelBorderColor=none;html=1;" parent="OnautR0iY9yRCEXQRBwu-60" vertex="1">
          <mxGeometry y="26" width="207" height="44" as="geometry" />
        </mxCell>
        <mxCell id="OnautR0iY9yRCEXQRBwu-62" value="" style="line;strokeWidth=1;align=left;verticalAlign=middle;spacingTop=-1;spacingLeft=3;spacingRight=3;rotatable=0;labelPosition=right;points=[];portConstraint=eastwest;labelBackgroundColor=none;rounded=1;shadow=0;fontStyle=1;fillColor=#A8DADC;strokeColor=#000000;fontColor=#1D3557;fontFamily=Comic Sans MS;labelBorderColor=none;html=1;" parent="OnautR0iY9yRCEXQRBwu-60" vertex="1">
          <mxGeometry y="70" width="207" height="8" as="geometry" />
        </mxCell>
        <mxCell id="OnautR0iY9yRCEXQRBwu-63" value="+ payment()&lt;br&gt;+ displayPaymentDetails() : void&lt;br&gt;+ calcTotal() : float&lt;br style=&quot;border-color: var(--border-color);&quot;&gt;+ makePayment() : void&lt;br&gt;+ ~payment()" style="text;align=left;verticalAlign=top;spacingLeft=4;spacingRight=4;overflow=hidden;rotatable=0;points=[[0,0.5],[1,0.5]];portConstraint=eastwest;labelBackgroundColor=none;rounded=1;shadow=0;fontStyle=1;fontColor=#1D3557;fontFamily=Comic Sans MS;labelBorderColor=none;html=1;" parent="OnautR0iY9yRCEXQRBwu-60" vertex="1">
          <mxGeometry y="78" width="207" height="93" as="geometry" />
        </mxCell>
        <mxCell id="OnautR0iY9yRCEXQRBwu-64" value="Staff" style="swimlane;fontStyle=1;align=center;verticalAlign=top;childLayout=stackLayout;horizontal=1;startSize=26;horizontalStack=0;resizeParent=1;resizeParentMax=0;resizeLast=0;collapsible=1;marginBottom=0;labelBackgroundColor=none;rounded=1;shadow=0;fillColor=#A8DADC;strokeColor=#457B9D;fontColor=#1D3557;fontFamily=Comic Sans MS;labelBorderColor=none;html=1;" parent="WIyWlLk6GJQsqaUBKTNV-1" vertex="1">
          <mxGeometry x="-2520" y="738" width="190" height="148" as="geometry" />
        </mxCell>
        <mxCell id="OnautR0iY9yRCEXQRBwu-65" value="# staffName : string&lt;br&gt;# staffContact : int&lt;br&gt;# staffID : string" style="text;align=left;verticalAlign=top;spacingLeft=4;spacingRight=4;overflow=hidden;rotatable=0;points=[[0,0.5],[1,0.5]];portConstraint=eastwest;labelBackgroundColor=none;rounded=1;shadow=0;fontStyle=1;fontColor=#1D3557;fontFamily=Comic Sans MS;labelBorderColor=none;html=1;" parent="OnautR0iY9yRCEXQRBwu-64" vertex="1">
          <mxGeometry y="26" width="190" height="54" as="geometry" />
        </mxCell>
        <mxCell id="OnautR0iY9yRCEXQRBwu-66" value="" style="line;strokeWidth=1;align=left;verticalAlign=middle;spacingTop=-1;spacingLeft=3;spacingRight=3;rotatable=0;labelPosition=right;points=[];portConstraint=eastwest;labelBackgroundColor=none;rounded=1;shadow=0;fontStyle=1;fillColor=#A8DADC;strokeColor=#000000;fontColor=#1D3557;fontFamily=Comic Sans MS;labelBorderColor=none;html=1;" parent="OnautR0iY9yRCEXQRBwu-64" vertex="1">
          <mxGeometry y="80" width="190" height="8" as="geometry" />
        </mxCell>
        <mxCell id="OnautR0iY9yRCEXQRBwu-67" value="+ Staff()&amp;nbsp;&lt;br&gt;+ displayStaffDetails() : void&lt;br&gt;+ ~Staff()" style="text;align=left;verticalAlign=top;spacingLeft=4;spacingRight=4;overflow=hidden;rotatable=0;points=[[0,0.5],[1,0.5]];portConstraint=eastwest;labelBackgroundColor=none;rounded=1;shadow=0;fontStyle=1;fontColor=#1D3557;fontFamily=Comic Sans MS;labelBorderColor=none;html=1;" parent="OnautR0iY9yRCEXQRBwu-64" vertex="1">
          <mxGeometry y="88" width="190" height="60" as="geometry" />
        </mxCell>
        <mxCell id="OnautR0iY9yRCEXQRBwu-74" value="Patient" style="swimlane;fontStyle=1;align=center;verticalAlign=top;childLayout=stackLayout;horizontal=1;startSize=26;horizontalStack=0;resizeParent=1;resizeParentMax=0;resizeLast=0;collapsible=1;marginBottom=0;labelBackgroundColor=none;rounded=1;shadow=0;fillColor=#A8DADC;strokeColor=#457B9D;fontColor=#1D3557;fontFamily=Comic Sans MS;labelBorderColor=none;html=1;" parent="WIyWlLk6GJQsqaUBKTNV-1" vertex="1">
          <mxGeometry x="-3150" y="1082" width="207" height="99" as="geometry" />
        </mxCell>
        <mxCell id="OnautR0iY9yRCEXQRBwu-75" value="- patientID : string" style="text;align=left;verticalAlign=top;spacingLeft=4;spacingRight=4;overflow=hidden;rotatable=0;points=[[0,0.5],[1,0.5]];portConstraint=eastwest;labelBackgroundColor=none;rounded=1;shadow=0;fontStyle=1;fontColor=#1D3557;fontFamily=Comic Sans MS;labelBorderColor=none;html=1;" parent="OnautR0iY9yRCEXQRBwu-74" vertex="1">
          <mxGeometry y="26" width="207" height="26" as="geometry" />
        </mxCell>
        <mxCell id="OnautR0iY9yRCEXQRBwu-76" value="" style="line;strokeWidth=1;align=left;verticalAlign=middle;spacingTop=-1;spacingLeft=3;spacingRight=3;rotatable=0;labelPosition=right;points=[];portConstraint=eastwest;labelBackgroundColor=none;rounded=1;shadow=0;fontStyle=1;fillColor=#A8DADC;strokeColor=#000000;fontColor=#1D3557;fontFamily=Comic Sans MS;labelBorderColor=none;html=1;" parent="OnautR0iY9yRCEXQRBwu-74" vertex="1">
          <mxGeometry y="52" width="207" height="8" as="geometry" />
        </mxCell>
        <mxCell id="OnautR0iY9yRCEXQRBwu-77" value="+ displayPatientDetails() : void" style="text;align=left;verticalAlign=top;spacingLeft=4;spacingRight=4;overflow=hidden;rotatable=0;points=[[0,0.5],[1,0.5]];portConstraint=eastwest;labelBackgroundColor=none;rounded=1;shadow=0;fontStyle=1;fontColor=#1D3557;fontFamily=Comic Sans MS;labelBorderColor=none;html=1;" parent="OnautR0iY9yRCEXQRBwu-74" vertex="1">
          <mxGeometry y="60" width="207" height="39" as="geometry" />
        </mxCell>
        <mxCell id="VdQVwTPsMMnsy0PVS3EY-14" value="View" style="endArrow=open;endSize=12;dashed=1;html=1;rounded=0;strokeColor=#457B9D;fontColor=#1D3557;fillColor=#A8DADC;entryX=-0.005;entryY=0.288;entryDx=0;entryDy=0;entryPerimeter=0;exitX=0;exitY=0.5;exitDx=0;exitDy=0;" edge="1" parent="WIyWlLk6GJQsqaUBKTNV-1" source="zkfFHV4jXpPFQw0GAbJ--0" target="OnautR0iY9yRCEXQRBwu-55">
          <mxGeometry width="160" relative="1" as="geometry">
            <mxPoint x="-2628" y="1395" as="sourcePoint" />
            <mxPoint x="-2468" y="1395" as="targetPoint" />
            <Array as="points">
              <mxPoint x="-3258" y="628" />
              <mxPoint x="-3258" y="1540" />
            </Array>
          </mxGeometry>
        </mxCell>
        <mxCell id="VdQVwTPsMMnsy0PVS3EY-15" value="View" style="endArrow=open;endSize=12;dashed=1;html=1;rounded=0;strokeColor=#457B9D;fontColor=#1D3557;fillColor=#A8DADC;entryX=0.13;entryY=-0.14;entryDx=0;entryDy=0;exitX=1.031;exitY=-0.013;exitDx=0;exitDy=0;exitPerimeter=0;entryPerimeter=0;" edge="1" parent="WIyWlLk6GJQsqaUBKTNV-1" source="OnautR0iY9yRCEXQRBwu-68" target="VdQVwTPsMMnsy0PVS3EY-18">
          <mxGeometry width="160" relative="1" as="geometry">
            <mxPoint x="-2592" y="1278" as="sourcePoint" />
            <mxPoint x="-2432" y="1278" as="targetPoint" />
            <Array as="points">
              <mxPoint x="-1809" y="635" />
              <mxPoint x="-1800" y="1847" />
            </Array>
          </mxGeometry>
        </mxCell>
        <mxCell id="VdQVwTPsMMnsy0PVS3EY-16" value="1" style="text;html=1;strokeColor=none;fillColor=none;align=center;verticalAlign=middle;whiteSpace=wrap;rounded=0;fontColor=#1D3557;" vertex="1" parent="WIyWlLk6GJQsqaUBKTNV-1">
          <mxGeometry x="-2970" y="603" width="60" height="30" as="geometry" />
        </mxCell>
        <mxCell id="VdQVwTPsMMnsy0PVS3EY-17" value="1...*" style="text;html=1;strokeColor=none;fillColor=none;align=center;verticalAlign=middle;whiteSpace=wrap;rounded=0;fontColor=#1D3557;" vertex="1" parent="WIyWlLk6GJQsqaUBKTNV-1">
          <mxGeometry x="-3132" y="1503" width="60" height="30" as="geometry" />
        </mxCell>
        <mxCell id="VdQVwTPsMMnsy0PVS3EY-18" value="0...*" style="text;html=1;strokeColor=none;fillColor=none;align=center;verticalAlign=middle;whiteSpace=wrap;rounded=0;fontColor=#1D3557;" vertex="1" parent="WIyWlLk6GJQsqaUBKTNV-1">
          <mxGeometry x="-2772" y="1854" width="60" height="30" as="geometry" />
        </mxCell>
        <mxCell id="VdQVwTPsMMnsy0PVS3EY-19" value="" style="endArrow=open;endFill=1;endSize=12;html=1;rounded=0;strokeColor=#457B9D;fontColor=#1D3557;fillColor=#A8DADC;exitX=1.015;exitY=-0.1;exitDx=0;exitDy=0;exitPerimeter=0;entryX=1.001;entryY=0.208;entryDx=0;entryDy=0;entryPerimeter=0;" edge="1" parent="WIyWlLk6GJQsqaUBKTNV-1" source="OnautR0iY9yRCEXQRBwu-77" target="OnautR0iY9yRCEXQRBwu-39">
          <mxGeometry width="160" relative="1" as="geometry">
            <mxPoint x="-3006" y="1440" as="sourcePoint" />
            <mxPoint x="-2846" y="1440" as="targetPoint" />
            <Array as="points">
              <mxPoint x="-2898" y="1139" />
              <mxPoint x="-2898" y="1314" />
              <mxPoint x="-2718" y="1314" />
              <mxPoint x="-2718" y="1831" />
            </Array>
          </mxGeometry>
        </mxCell>
        <mxCell id="VdQVwTPsMMnsy0PVS3EY-20" value="1" style="text;html=1;strokeColor=none;fillColor=none;align=center;verticalAlign=middle;whiteSpace=wrap;rounded=0;fontColor=#1D3557;" vertex="1" parent="WIyWlLk6GJQsqaUBKTNV-1">
          <mxGeometry x="-2961" y="1110" width="60" height="30" as="geometry" />
        </mxCell>
        <mxCell id="VdQVwTPsMMnsy0PVS3EY-21" value="0...*" style="text;html=1;strokeColor=none;fillColor=none;align=center;verticalAlign=middle;whiteSpace=wrap;rounded=0;fontColor=#1D3557;" vertex="1" parent="WIyWlLk6GJQsqaUBKTNV-1">
          <mxGeometry x="-2772" y="1800" width="60" height="30" as="geometry" />
        </mxCell>
        <mxCell id="VdQVwTPsMMnsy0PVS3EY-22" value="View" style="endArrow=open;endSize=12;dashed=1;html=1;rounded=0;strokeColor=#457B9D;fontColor=#1D3557;fillColor=#A8DADC;exitX=-0.02;exitY=-0.136;exitDx=0;exitDy=0;exitPerimeter=0;entryX=0.86;entryY=1.073;entryDx=0;entryDy=0;entryPerimeter=0;" edge="1" parent="WIyWlLk6GJQsqaUBKTNV-1" source="OnautR0iY9yRCEXQRBwu-77" target="VdQVwTPsMMnsy0PVS3EY-23">
          <mxGeometry width="160" relative="1" as="geometry">
            <mxPoint x="-3069" y="1287" as="sourcePoint" />
            <mxPoint x="-2909" y="1287" as="targetPoint" />
            <Array as="points">
              <mxPoint x="-3195" y="1138" />
              <mxPoint x="-3195" y="1597" />
            </Array>
          </mxGeometry>
        </mxCell>
        <mxCell id="VdQVwTPsMMnsy0PVS3EY-23" value="1...*" style="text;html=1;strokeColor=none;fillColor=none;align=center;verticalAlign=middle;whiteSpace=wrap;rounded=0;fontColor=#1D3557;" vertex="1" parent="WIyWlLk6GJQsqaUBKTNV-1">
          <mxGeometry x="-3132" y="1566" width="60" height="30" as="geometry" />
        </mxCell>
        <mxCell id="VdQVwTPsMMnsy0PVS3EY-24" value="1" style="text;html=1;strokeColor=none;fillColor=none;align=center;verticalAlign=middle;whiteSpace=wrap;rounded=0;fontColor=#1D3557;" vertex="1" parent="WIyWlLk6GJQsqaUBKTNV-1">
          <mxGeometry x="-3204" y="1110" width="60" height="30" as="geometry" />
        </mxCell>
        <mxCell id="VdQVwTPsMMnsy0PVS3EY-25" value="" style="endArrow=open;endFill=1;endSize=12;html=1;rounded=0;strokeColor=#457B9D;fontColor=#1D3557;fillColor=#A8DADC;entryX=1.012;entryY=0.753;entryDx=0;entryDy=0;entryPerimeter=0;" edge="1" parent="WIyWlLk6GJQsqaUBKTNV-1" target="OnautR0iY9yRCEXQRBwu-55">
          <mxGeometry width="160" relative="1" as="geometry">
            <mxPoint x="-2781" y="1143" as="sourcePoint" />
            <mxPoint x="-2756" y="1467" as="targetPoint" />
            <Array as="points">
              <mxPoint x="-2826" y="1143" />
              <mxPoint x="-2826" y="1593" />
            </Array>
          </mxGeometry>
        </mxCell>
        <mxCell id="VdQVwTPsMMnsy0PVS3EY-26" value="1...*" style="text;html=1;strokeColor=none;fillColor=none;align=center;verticalAlign=middle;whiteSpace=wrap;rounded=0;fontColor=#1D3557;" vertex="1" parent="WIyWlLk6GJQsqaUBKTNV-1">
          <mxGeometry x="-2880" y="1557" width="60" height="30" as="geometry" />
        </mxCell>
        <mxCell id="VdQVwTPsMMnsy0PVS3EY-27" value="1...*" style="text;html=1;strokeColor=none;fillColor=none;align=center;verticalAlign=middle;whiteSpace=wrap;rounded=0;fontColor=#1D3557;" vertex="1" parent="WIyWlLk6GJQsqaUBKTNV-1">
          <mxGeometry x="-2832" y="1116" width="60" height="30" as="geometry" />
        </mxCell>
        <mxCell id="VdQVwTPsMMnsy0PVS3EY-28" value="" style="endArrow=diamondThin;endFill=1;endSize=24;html=1;rounded=0;strokeColor=#457B9D;fontColor=#1D3557;fillColor=#A8DADC;entryX=1;entryY=0.5;entryDx=0;entryDy=0;exitX=0;exitY=0.5;exitDx=0;exitDy=0;" edge="1" parent="WIyWlLk6GJQsqaUBKTNV-1" source="OnautR0iY9yRCEXQRBwu-63" target="OnautR0iY9yRCEXQRBwu-40">
          <mxGeometry width="160" relative="1" as="geometry">
            <mxPoint x="-2448" y="1548" as="sourcePoint" />
            <mxPoint x="-2288" y="1548" as="targetPoint" />
            <Array as="points">
              <mxPoint x="-2277" y="1467" />
              <mxPoint x="-2277" y="1611" />
            </Array>
          </mxGeometry>
        </mxCell>
        <mxCell id="VdQVwTPsMMnsy0PVS3EY-29" value="" style="endArrow=diamondThin;endFill=1;endSize=24;html=1;rounded=0;strokeColor=#457B9D;fontColor=#1D3557;fillColor=#A8DADC;entryX=1;entryY=0.5;entryDx=0;entryDy=0;" edge="1" parent="WIyWlLk6GJQsqaUBKTNV-1" target="OnautR0iY9yRCEXQRBwu-44">
          <mxGeometry width="160" relative="1" as="geometry">
            <mxPoint x="-2106" y="1422" as="sourcePoint" />
            <mxPoint x="-2243" y="1593" as="targetPoint" />
            <Array as="points">
              <mxPoint x="-2241" y="1422" />
              <mxPoint x="-2241" y="1273" />
            </Array>
          </mxGeometry>
        </mxCell>
        <mxCell id="VdQVwTPsMMnsy0PVS3EY-30" value="1..*" style="text;html=1;strokeColor=none;fillColor=none;align=center;verticalAlign=middle;whiteSpace=wrap;rounded=0;fontColor=#1D3557;" vertex="1" parent="WIyWlLk6GJQsqaUBKTNV-1">
          <mxGeometry x="-2295" y="1233" width="60" height="30" as="geometry" />
        </mxCell>
        <mxCell id="VdQVwTPsMMnsy0PVS3EY-31" value="1" style="text;html=1;strokeColor=none;fillColor=none;align=center;verticalAlign=middle;whiteSpace=wrap;rounded=0;fontColor=#1D3557;" vertex="1" parent="WIyWlLk6GJQsqaUBKTNV-1">
          <mxGeometry x="-2158.5" y="1473" width="60" height="30" as="geometry" />
        </mxCell>
        <mxCell id="VdQVwTPsMMnsy0PVS3EY-32" value="1...*" style="text;html=1;strokeColor=none;fillColor=none;align=center;verticalAlign=middle;whiteSpace=wrap;rounded=0;fontColor=#1D3557;" vertex="1" parent="WIyWlLk6GJQsqaUBKTNV-1">
          <mxGeometry x="-2158.5" y="1395" width="60" height="30" as="geometry" />
        </mxCell>
        <mxCell id="VdQVwTPsMMnsy0PVS3EY-33" value="1" style="text;html=1;strokeColor=none;fillColor=none;align=center;verticalAlign=middle;whiteSpace=wrap;rounded=0;fontColor=#1D3557;" vertex="1" parent="WIyWlLk6GJQsqaUBKTNV-1">
          <mxGeometry x="-2349" y="1575" width="60" height="30" as="geometry" />
        </mxCell>
        <mxCell id="VdQVwTPsMMnsy0PVS3EY-35" value="" style="endArrow=none;html=1;rounded=0;strokeColor=#457B9D;fontColor=#1D3557;fillColor=#A8DADC;exitX=0.206;exitY=1.077;exitDx=0;exitDy=0;exitPerimeter=0;entryX=0.25;entryY=0;entryDx=0;entryDy=0;" edge="1" parent="WIyWlLk6GJQsqaUBKTNV-1" source="OnautR0iY9yRCEXQRBwu-77" target="OnautR0iY9yRCEXQRBwu-40">
          <mxGeometry width="50" height="50" relative="1" as="geometry">
            <mxPoint x="-2718" y="1535" as="sourcePoint" />
            <mxPoint x="-2668" y="1485" as="targetPoint" />
            <Array as="points">
              <mxPoint x="-3107" y="1359" />
              <mxPoint x="-2488" y="1359" />
            </Array>
          </mxGeometry>
        </mxCell>
        <mxCell id="VdQVwTPsMMnsy0PVS3EY-36" value="" style="endArrow=none;html=1;rounded=0;strokeColor=#457B9D;fontColor=#1D3557;fillColor=#A8DADC;entryX=-0.025;entryY=1.179;entryDx=0;entryDy=0;entryPerimeter=0;exitX=0.736;exitY=1.079;exitDx=0;exitDy=0;exitPerimeter=0;" edge="1" parent="WIyWlLk6GJQsqaUBKTNV-1" source="OnautR0iY9yRCEXQRBwu-77" target="OnautR0iY9yRCEXQRBwu-45">
          <mxGeometry width="50" height="50" relative="1" as="geometry">
            <mxPoint x="-2997" y="1188" as="sourcePoint" />
            <mxPoint x="-2776" y="1485" as="targetPoint" />
            <Array as="points">
              <mxPoint x="-2997" y="1276" />
            </Array>
          </mxGeometry>
        </mxCell>
        <mxCell id="VdQVwTPsMMnsy0PVS3EY-37" value="1" style="text;html=1;strokeColor=none;fillColor=none;align=center;verticalAlign=middle;whiteSpace=wrap;rounded=0;fontColor=#1D3557;" vertex="1" parent="WIyWlLk6GJQsqaUBKTNV-1">
          <mxGeometry x="-3012" y="1181" width="60" height="30" as="geometry" />
        </mxCell>
        <mxCell id="VdQVwTPsMMnsy0PVS3EY-38" value="1" style="text;html=1;strokeColor=none;fillColor=none;align=center;verticalAlign=middle;whiteSpace=wrap;rounded=0;fontColor=#1D3557;" vertex="1" parent="WIyWlLk6GJQsqaUBKTNV-1">
          <mxGeometry x="-3123" y="1181" width="60" height="30" as="geometry" />
        </mxCell>
        <mxCell id="VdQVwTPsMMnsy0PVS3EY-39" value="0...*" style="text;html=1;strokeColor=none;fillColor=none;align=center;verticalAlign=middle;whiteSpace=wrap;rounded=0;fontColor=#1D3557;" vertex="1" parent="WIyWlLk6GJQsqaUBKTNV-1">
          <mxGeometry x="-2565" y="1251" width="60" height="30" as="geometry" />
        </mxCell>
        <mxCell id="VdQVwTPsMMnsy0PVS3EY-41" value="0, 1" style="text;html=1;strokeColor=none;fillColor=none;align=center;verticalAlign=middle;whiteSpace=wrap;rounded=0;fontColor=#1D3557;" vertex="1" parent="WIyWlLk6GJQsqaUBKTNV-1">
          <mxGeometry x="-2493" y="1513.5" width="60" height="30" as="geometry" />
        </mxCell>
        <mxCell id="VdQVwTPsMMnsy0PVS3EY-42" value="" style="endArrow=open;endFill=1;endSize=12;html=1;rounded=0;strokeColor=#457B9D;fontColor=#1D3557;fillColor=#A8DADC;exitX=0.498;exitY=1.083;exitDx=0;exitDy=0;exitPerimeter=0;entryX=0.5;entryY=0;entryDx=0;entryDy=0;" edge="1" parent="WIyWlLk6GJQsqaUBKTNV-1" source="OnautR0iY9yRCEXQRBwu-23" target="OnautR0iY9yRCEXQRBwu-44">
          <mxGeometry width="160" relative="1" as="geometry">
            <mxPoint x="-2502" y="1341" as="sourcePoint" />
            <mxPoint x="-2342" y="1341" as="targetPoint" />
            <Array as="points">
              <mxPoint x="-2138" y="1062" />
              <mxPoint x="-2413" y="1062" />
            </Array>
          </mxGeometry>
        </mxCell>
        <mxCell id="VdQVwTPsMMnsy0PVS3EY-43" value="1..*" style="text;html=1;strokeColor=none;fillColor=none;align=center;verticalAlign=middle;whiteSpace=wrap;rounded=0;fontColor=#1D3557;" vertex="1" parent="WIyWlLk6GJQsqaUBKTNV-1">
          <mxGeometry x="-2421" y="1179" width="60" height="30" as="geometry" />
        </mxCell>
        <mxCell id="VdQVwTPsMMnsy0PVS3EY-44" value="1" style="text;html=1;strokeColor=none;fillColor=none;align=center;verticalAlign=middle;whiteSpace=wrap;rounded=0;fontColor=#1D3557;" vertex="1" parent="WIyWlLk6GJQsqaUBKTNV-1">
          <mxGeometry x="-2151" y="1017" width="60" height="30" as="geometry" />
        </mxCell>
        <mxCell id="VdQVwTPsMMnsy0PVS3EY-45" value="" style="endArrow=block;endSize=16;endFill=0;html=1;rounded=0;strokeColor=#457B9D;fontColor=#1D3557;fillColor=#A8DADC;exitX=0.5;exitY=0;exitDx=0;exitDy=0;entryX=0.5;entryY=1;entryDx=0;entryDy=0;" edge="1" parent="WIyWlLk6GJQsqaUBKTNV-1" source="zkfFHV4jXpPFQw0GAbJ--6" target="zkfFHV4jXpPFQw0GAbJ--0">
          <mxGeometry x="-0.2216" y="-44" width="160" relative="1" as="geometry">
            <mxPoint x="-2925" y="918" as="sourcePoint" />
            <mxPoint x="-2842" y="684" as="targetPoint" />
            <mxPoint as="offset" />
          </mxGeometry>
        </mxCell>
        <mxCell id="VdQVwTPsMMnsy0PVS3EY-47" value="" style="endArrow=block;endSize=16;endFill=0;html=1;rounded=0;strokeColor=#457B9D;fontColor=#1D3557;fillColor=#A8DADC;exitX=0.5;exitY=0;exitDx=0;exitDy=0;entryX=0.488;entryY=1.017;entryDx=0;entryDy=0;entryPerimeter=0;" edge="1" parent="WIyWlLk6GJQsqaUBKTNV-1" source="OnautR0iY9yRCEXQRBwu-74" target="OnautR0iY9yRCEXQRBwu-3">
          <mxGeometry x="-0.2216" y="-44" width="160" relative="1" as="geometry">
            <mxPoint x="-2833" y="783" as="sourcePoint" />
            <mxPoint x="-2833" y="689" as="targetPoint" />
            <mxPoint as="offset" />
            <Array as="points">
              <mxPoint x="-3046" y="1044" />
              <mxPoint x="-2844" y="1044" />
            </Array>
          </mxGeometry>
        </mxCell>
        <mxCell id="VdQVwTPsMMnsy0PVS3EY-48" value="" style="endArrow=block;endSize=16;endFill=0;html=1;rounded=0;strokeColor=#457B9D;fontColor=#1D3557;fillColor=#A8DADC;exitX=0.5;exitY=0;exitDx=0;exitDy=0;entryX=0.49;entryY=1.019;entryDx=0;entryDy=0;entryPerimeter=0;" edge="1" parent="WIyWlLk6GJQsqaUBKTNV-1" source="OnautR0iY9yRCEXQRBwu-48" target="OnautR0iY9yRCEXQRBwu-3">
          <mxGeometry x="-0.2216" y="-44" width="160" relative="1" as="geometry">
            <mxPoint x="-3037" y="1091" as="sourcePoint" />
            <mxPoint x="-2838" y="1012" as="targetPoint" />
            <mxPoint as="offset" />
            <Array as="points">
              <mxPoint x="-2682" y="1044" />
              <mxPoint x="-2844" y="1044" />
            </Array>
          </mxGeometry>
        </mxCell>
        <mxCell id="VdQVwTPsMMnsy0PVS3EY-49" value="" style="endArrow=block;endSize=16;endFill=0;html=1;rounded=0;strokeColor=#457B9D;fontColor=#1D3557;fillColor=#A8DADC;exitX=0.5;exitY=0;exitDx=0;exitDy=0;entryX=1.012;entryY=0.118;entryDx=0;entryDy=0;entryPerimeter=0;" edge="1" parent="WIyWlLk6GJQsqaUBKTNV-1" source="OnautR0iY9yRCEXQRBwu-20" target="OnautR0iY9yRCEXQRBwu-64">
          <mxGeometry x="-0.2216" y="-44" width="160" relative="1" as="geometry">
            <mxPoint x="-2159.75" y="868" as="sourcePoint" />
            <mxPoint x="-2159.75" y="774" as="targetPoint" />
            <mxPoint as="offset" />
            <Array as="points">
              <mxPoint x="-2137" y="756" />
            </Array>
          </mxGeometry>
        </mxCell>
        <mxCell id="VdQVwTPsMMnsy0PVS3EY-51" value="" style="endArrow=none;html=1;rounded=0;strokeColor=#457B9D;fontColor=#1D3557;fillColor=#A8DADC;exitX=1.016;exitY=0.213;exitDx=0;exitDy=0;entryX=-0.005;entryY=0.466;entryDx=0;entryDy=0;entryPerimeter=0;exitPerimeter=0;" edge="1" parent="WIyWlLk6GJQsqaUBKTNV-1" source="OnautR0iY9yRCEXQRBwu-3" target="OnautR0iY9yRCEXQRBwu-66">
          <mxGeometry width="50" height="50" relative="1" as="geometry">
            <mxPoint x="-2583" y="1058" as="sourcePoint" />
            <mxPoint x="-2529" y="828" as="targetPoint" />
            <Array as="points">
              <mxPoint x="-2691" y="915" />
              <mxPoint x="-2691" y="822" />
            </Array>
          </mxGeometry>
        </mxCell>
        <mxCell id="VdQVwTPsMMnsy0PVS3EY-52" value="1...*" style="text;html=1;strokeColor=none;fillColor=none;align=center;verticalAlign=middle;whiteSpace=wrap;rounded=0;fontColor=#1D3557;" vertex="1" parent="WIyWlLk6GJQsqaUBKTNV-1">
          <mxGeometry x="-2743" y="886" width="60" height="30" as="geometry" />
        </mxCell>
        <mxCell id="VdQVwTPsMMnsy0PVS3EY-54" value="1" style="text;html=1;strokeColor=none;fillColor=none;align=center;verticalAlign=middle;whiteSpace=wrap;rounded=0;fontColor=#1D3557;" vertex="1" parent="WIyWlLk6GJQsqaUBKTNV-1">
          <mxGeometry x="-2565" y="797" width="60" height="30" as="geometry" />
        </mxCell>
        <mxCell id="VdQVwTPsMMnsy0PVS3EY-55" value="" style="endArrow=open;endFill=1;endSize=12;html=1;rounded=0;strokeColor=#457B9D;fontColor=#1D3557;fillColor=#A8DADC;exitX=1;exitY=0.5;exitDx=0;exitDy=0;entryX=1.015;entryY=0.13;entryDx=0;entryDy=0;entryPerimeter=0;" edge="1" parent="WIyWlLk6GJQsqaUBKTNV-1" source="OnautR0iY9yRCEXQRBwu-65" target="OnautR0iY9yRCEXQRBwu-36">
          <mxGeometry width="160" relative="1" as="geometry">
            <mxPoint x="-2322" y="1269" as="sourcePoint" />
            <mxPoint x="-2718" y="1917" as="targetPoint" />
            <Array as="points">
              <mxPoint x="-1728" y="791" />
              <mxPoint x="-1728" y="1773" />
            </Array>
          </mxGeometry>
        </mxCell>
        <mxCell id="VdQVwTPsMMnsy0PVS3EY-57" value="1" style="text;html=1;strokeColor=none;fillColor=none;align=center;verticalAlign=middle;whiteSpace=wrap;rounded=0;fontColor=#1D3557;" vertex="1" parent="WIyWlLk6GJQsqaUBKTNV-1">
          <mxGeometry x="-2339" y="792" width="60" height="30" as="geometry" />
        </mxCell>
        <mxCell id="VdQVwTPsMMnsy0PVS3EY-58" value="1...*" style="text;html=1;strokeColor=none;fillColor=none;align=center;verticalAlign=middle;whiteSpace=wrap;rounded=0;fontColor=#1D3557;" vertex="1" parent="WIyWlLk6GJQsqaUBKTNV-1">
          <mxGeometry x="-2772" y="1737" width="60" height="30" as="geometry" />
        </mxCell>
        <mxCell id="VdQVwTPsMMnsy0PVS3EY-59" value="" style="endArrow=open;endFill=1;endSize=12;html=1;rounded=0;strokeColor=#457B9D;fontColor=#1D3557;fillColor=#A8DADC;exitX=1.027;exitY=0.097;exitDx=0;exitDy=0;exitPerimeter=0;entryX=1;entryY=0.5;entryDx=0;entryDy=0;" edge="1" parent="WIyWlLk6GJQsqaUBKTNV-1" source="OnautR0iY9yRCEXQRBwu-67" target="OnautR0iY9yRCEXQRBwu-43">
          <mxGeometry width="160" relative="1" as="geometry">
            <mxPoint x="-2385" y="1323" as="sourcePoint" />
            <mxPoint x="-2225" y="1323" as="targetPoint" />
            <Array as="points">
              <mxPoint x="-1845" y="832" />
              <mxPoint x="-1845" y="1641" />
            </Array>
          </mxGeometry>
        </mxCell>
        <mxCell id="VdQVwTPsMMnsy0PVS3EY-60" value="1" style="text;html=1;strokeColor=none;fillColor=none;align=center;verticalAlign=middle;whiteSpace=wrap;rounded=0;fontColor=#1D3557;" vertex="1" parent="WIyWlLk6GJQsqaUBKTNV-1">
          <mxGeometry x="-2339" y="837" width="60" height="30" as="geometry" />
        </mxCell>
        <mxCell id="VdQVwTPsMMnsy0PVS3EY-61" value="1...*" style="text;html=1;strokeColor=none;fillColor=none;align=center;verticalAlign=middle;whiteSpace=wrap;rounded=0;fontColor=#1D3557;" vertex="1" parent="WIyWlLk6GJQsqaUBKTNV-1">
          <mxGeometry x="-2349" y="1644" width="60" height="30" as="geometry" />
        </mxCell>
        <mxCell id="VdQVwTPsMMnsy0PVS3EY-62" value="" style="endArrow=open;endFill=1;endSize=12;html=1;rounded=0;strokeColor=#457B9D;fontColor=#1D3557;fillColor=#A8DADC;exitX=0;exitY=0.5;exitDx=0;exitDy=0;entryX=0;entryY=0.5;entryDx=0;entryDy=0;" edge="1" parent="WIyWlLk6GJQsqaUBKTNV-1" source="OnautR0iY9yRCEXQRBwu-65" target="OnautR0iY9yRCEXQRBwu-53">
          <mxGeometry width="160" relative="1" as="geometry">
            <mxPoint x="-2790" y="1152" as="sourcePoint" />
            <mxPoint x="-2630" y="1152" as="targetPoint" />
            <Array as="points">
              <mxPoint x="-2610" y="791" />
              <mxPoint x="-2610" y="495" />
              <mxPoint x="-3294" y="495" />
              <mxPoint x="-3294" y="1467" />
            </Array>
          </mxGeometry>
        </mxCell>
        <mxCell id="VdQVwTPsMMnsy0PVS3EY-63" value="1...*" style="text;html=1;strokeColor=none;fillColor=none;align=center;verticalAlign=middle;whiteSpace=wrap;rounded=0;fontColor=#1D3557;" vertex="1" parent="WIyWlLk6GJQsqaUBKTNV-1">
          <mxGeometry x="-3132" y="1431" width="60" height="30" as="geometry" />
        </mxCell>
        <mxCell id="VdQVwTPsMMnsy0PVS3EY-64" value="1" style="text;html=1;strokeColor=none;fillColor=none;align=center;verticalAlign=middle;whiteSpace=wrap;rounded=0;fontColor=#1D3557;" vertex="1" parent="WIyWlLk6GJQsqaUBKTNV-1">
          <mxGeometry x="-2565" y="762" width="60" height="30" as="geometry" />
        </mxCell>
      </root>
    </mxGraphModel>
  </diagram>
</mxfile>
